<svg xmlns="http://www.w3.org/2000/svg" viewBox="0 0 319.016 74.912">
    <defs>
        <style>
            .cls-1{fill:#4cc7e9}.cls-2{fill:#343741}
        </style>
    </defs>
    <g id="logoblock" transform="translate(-120 -78.853)">
        <path id="Path_1" d="M173.4 65.427l29.125 9.485V0L173.4 9.485v55.942z" class="cls-1" data-name="Path 1" transform="translate(19.371 78.853)"/>
        <g id="Group_2" data-name="Group 2" transform="translate(120 99.207)">
            <g id="Group_1" data-name="Group 1">
                <path id="Path_2" d="M0 67.32h4.994v2.812a6.706 6.706 0 0 1 5.75-3.231c4.407 0 7.806 3.273 7.806 9.191v.294c0 5.917-3.357 9.275-7.806 9.275a6.406 6.406 0 0 1-5.75-3.106v8.855H0zm13.471 9.107v-.294c0-3.651-1.8-5.414-4.281-5.414-2.6 0-4.407 1.8-4.407 5.414v.294c0 3.609 1.721 5.372 4.407 5.372 2.771-.043 4.281-1.889 4.281-5.372z" class="cls-2" data-name="Path 2" transform="translate(0 -59.178)"/>
                <path id="Path_3" d="M50.6 79.483V67.9h4.952v10.87c0 2.434 1.007 3.609 3.106 3.609s3.735-1.3 3.735-3.945V67.9h4.952v17.962h-4.91V83.05a5.959 5.959 0 0 1-5.708 3.19c-3.527 0-6.127-2.057-6.127-6.757z" class="cls-2" data-name="Path 3" transform="translate(-29.365 -59.758)"/>
                <path id="Path_4" d="M99.6 48.5h4.952v26.062H99.6z" class="cls-2" data-name="Path 4" transform="translate(-57.801 -48.5)"/>
                <path id="Path_5" d="M118.808 75.193v-9.107H116.5v-3.525h2.308V58.7h4.952v3.861h3.777v3.525h-3.777v8.645c0 1.427.713 2.14 1.972 2.14a4.465 4.465 0 0 0 1.889-.336V80.4a8.75 8.75 0 0 1-3.022.462c-3.734-.003-5.791-1.934-5.791-5.669z" class="cls-2" data-name="Path 5" transform="translate(-67.608 -54.419)"/>
            </g>
        </g>
        <g id="Group_4" data-name="Group 4" transform="translate(234.864 107.097)">
            <g id="Group_3" data-name="Group 3">
                <path id="Path_6" d="M273.7 67.552h4.994v3.441a5.916 5.916 0 0 1 5.792-3.693v4.616c-3.693-.042-5.792 1.175-5.792 4.616v8.981H273.7z" class="cls-2" data-name="Path 6" transform="translate(-273.7 -67.3)"/>
                <path id="Path_7" d="M304.2 79.483V67.9h4.952v10.87c0 2.434 1.007 3.609 3.105 3.609s3.735-1.3 3.735-3.945V67.9h4.952v17.962h-4.952V83.05a5.959 5.959 0 0 1-5.708 3.19c-3.484 0-6.084-2.057-6.084-6.757z" class="cls-2" data-name="Path 7" transform="translate(-291.4 -67.648)"/>
            </g>
        </g>
        <g id="Group_7" data-name="Group 7" transform="translate(306.031 102.085)">
            <g id="Group_6" data-name="Group 6">
                <path id="Path_8" d="M173.346 224.8h2.51c1.278 0 2.282.5 2.282 1.78v.046a1.557 1.557 0 0 1-1.232 1.552c1 .183 1.6.685 1.6 1.689v.046c0 1.323-.913 2.008-2.419 2.008H173.3V224.8zm.73.548v2.552h1.824c1.05 0 1.552-.411 1.552-1.278v-.046c0-.867-.548-1.232-1.552-1.232zm0 3.149v2.784h1.962c1.141 0 1.734-.456 1.734-1.415v-.046c0-.913-.639-1.369-1.78-1.369h-1.917z" class="cls-2" data-name="Path 8" transform="translate(-173.3 -221.834)"/>
                <path id="Path_9" d="M188.2 229.794c0-1.643 1.552-2.145 3.331-2.145h1.46v-.639c0-1.323-.548-1.917-1.78-1.917a1.8 1.8 0 0 0-2.011 1.507h-.685c.183-1.506 1.369-2.1 2.738-2.1a2.208 2.208 0 0 1 2.464 2.51v4.7h-.73v-1.1a2.683 2.683 0 0 1-2.419 1.187c-1.368.003-2.368-.68-2.368-2.003zm4.792-.365v-1.187h-1.46c-1.46 0-2.647.319-2.647 1.6 0 .913.548 1.415 1.734 1.415 1.369-.048 2.373-.779 2.373-1.828z" class="cls-2" data-name="Path 9" transform="translate(-181.4 -221.671)"/>
                <path id="Path_10" d="M205.6 224.8h.73v6.48h3.195v-6.48h.73v6.48h3.195v-6.48h.73v7.074h-8.58z" class="cls-2" data-name="Path 10" transform="translate(-190.859 -221.834)"/>
                <path id="Path_11" d="M236.6 231.865a1.211 1.211 0 0 1-.5-.091v-.685a1.107 1.107 0 0 0 .456.091c.73 0 .913-1.05 1.05-2.6.137-1.415.228-3.879.228-3.879h4.427v7.074h-.73v-6.48h-3.058c-.046.776-.091 2.282-.183 3.332-.182 2.097-.547 3.238-1.69 3.238z" class="cls-2" data-name="Path 11" transform="translate(-207.44 -221.779)"/>
                <path id="Path_12" d="M255 231.874V224.8h.73v6.024l4.2-6.024h.73v7.074h-.73V225.8l-4.2 6.024H255z" class="cls-2" data-name="Path 12" transform="translate(-217.715 -221.834)"/>
                <path id="Path_13" d="M276.555 231.874v-3.56a2.835 2.835 0 0 1-2.282 1c-1.369 0-2.373-.776-2.373-2.738V224.8h.73v1.78c0 1.506.685 2.145 1.826 2.145a2.476 2.476 0 0 0 2.1-1.1v-2.784h.73v7.074h-.73z" class="cls-2" data-name="Path 13" transform="translate(-226.902 -221.834)"/>
                <path id="Path_14" d="M293.992 228.5h-4.062v3.377h-.73V224.8h.73v3.1h4.062v-3.1h.73v7.074h-.73z" class="cls-2" data-name="Path 14" transform="translate(-236.307 -221.834)"/>
                <path id="Path_15" d="M306.7 224.8h.73v2.6h1.552c1.506 0 2.647.685 2.647 2.191v.046a2.222 2.222 0 0 1-2.51 2.282h-2.373V224.8zm2.419 6.48a1.532 1.532 0 0 0 1.734-1.689v-.046c0-1-.593-1.6-1.871-1.6h-1.552v3.331zm3.651-6.48h.73v7.074h-.73z" class="cls-2" data-name="Path 15" transform="translate(-245.821 -221.834)"/>
                <path id="Path_16" d="M327 228.34v-7.074h.73v6.024l4.2-6.024h.73v7.074h-.73v-6.07l-4.2 6.024H327zm1.05-10.04h.639a1.084 1.084 0 0 0 1.05 1.141 1.191 1.191 0 0 0 1.141-1.141h.639a1.764 1.764 0 0 1-1.78 1.689 1.743 1.743 0 0 1-1.689-1.689z" class="cls-2" data-name="Path 16" transform="translate(-256.857 -218.3)"/>
                <path id="Path_17" d="M351.7 229.337h.685a2.178 2.178 0 0 0 2.373 1.871c1.46 0 2.464-1.1 2.556-2.875h-3.834v-.593h3.833a2.578 2.578 0 0 0-2.6-2.647 2.258 2.258 0 0 0-2.328 1.871h-.685a2.933 2.933 0 0 1 3.012-2.464 3.309 3.309 0 0 1 3.377 3.56v.091a3.371 3.371 0 0 1-3.289 3.649 2.842 2.842 0 0 1-3.1-2.463z" class="cls-2" data-name="Path 17" transform="translate(-270.284 -221.671)"/>
                <path id="Path_18" d="M370.83 228.177v3.7h-.73V224.8h.73v3.377l3.47-3.377h.867l-3.468 3.331 3.7 3.742h-.913z" class="cls-2" data-name="Path 18" transform="translate(-280.287 -221.834)"/>
                <path id="Path_19" d="M383 228.3v-.091a3.4 3.4 0 0 1 3.377-3.605 2.763 2.763 0 0 1 2.966 2.373h-.685a2.064 2.064 0 0 0-2.236-1.734 2.725 2.725 0 0 0-2.647 3.012v.091a2.66 2.66 0 0 0 2.647 2.966 2.25 2.25 0 0 0 2.373-1.962h.685a2.907 2.907 0 0 1-3.012 2.556A3.444 3.444 0 0 1 383 228.3z" class="cls-2" data-name="Path 19" transform="translate(-287.3 -221.725)"/>
                <path id="Path_20" d="M406.055 225.393h-3.925v6.48h-.73V224.8h5.385v7.074h-.73z" class="cls-2" data-name="Path 20" transform="translate(-297.303 -221.834)"/>
                <path id="Path_21" d="M417.6 228.3v-.091a3.3 3.3 0 0 1 3.24-3.605c1.689 0 3.1 1.1 3.1 3.468v.274h-5.61c.046 1.917.913 2.966 2.6 2.966a2.065 2.065 0 0 0 2.236-1.46h.73a2.726 2.726 0 0 1-2.921 2.1 3.41 3.41 0 0 1-3.375-3.652zm5.613-.593c-.046-1.734-.958-2.51-2.373-2.51a2.462 2.462 0 0 0-2.464 2.51z" class="cls-2" data-name="Path 21" transform="translate(-306.11 -221.725)"/>
                <path id="Path_22" d="M435.9 224.637h.73v1.643a3.083 3.083 0 0 1 2.693-1.78 3.249 3.249 0 0 1 3.195 3.56v.091c0 2.236-1.369 3.605-3.195 3.605a2.858 2.858 0 0 1-2.693-1.734v4.062h-.73zm5.887 3.605v-.091c0-1.962-1.141-3.012-2.51-3.012a2.724 2.724 0 0 0-2.647 3.012v.091a2.659 2.659 0 0 0 2.647 2.966c1.506.001 2.51-1.095 2.51-2.966z" class="cls-2" data-name="Path 22" transform="translate(-316.058 -221.671)"/>
                <path id="Path_23" d="M457.959 225.393h-2.464v6.48h-.73v-6.48H452.3v-.593h5.613v.593z" class="cls-2" data-name="Path 23" transform="translate(-324.974 -221.834)"/>
                <path id="Path_24" d="M173.346 258.5h2.51c1.278 0 2.282.5 2.282 1.78v.046a1.558 1.558 0 0 1-1.232 1.552c1 .182 1.6.684 1.6 1.689v.045c0 1.324-.913 2.008-2.419 2.008H173.3v-7.12zm.73.593v2.51h1.824c1.05 0 1.552-.411 1.552-1.278v-.046c0-.867-.548-1.232-1.552-1.232h-1.825zm0 3.1v2.784h1.962c1.141 0 1.734-.456 1.734-1.415v-.046c0-.913-.639-1.369-1.78-1.369h-1.917z" class="cls-2" data-name="Path 24" transform="translate(-173.3 -240.154)"/>
                <path id="Path_25" d="M196.3 263.038h.685a2.178 2.178 0 0 0 2.373 1.871c1.46 0 2.464-1.1 2.556-2.875h-3.834v-.593h3.834a2.578 2.578 0 0 0-2.6-2.647 2.258 2.258 0 0 0-2.327 1.871h-.687a2.933 2.933 0 0 1 3.012-2.464 3.309 3.309 0 0 1 3.377 3.56v.091a3.371 3.371 0 0 1-3.289 3.648 2.809 2.809 0 0 1-3.1-2.462z" class="cls-2" data-name="Path 25" transform="translate(-185.804 -239.991)"/>
                <path id="Path_26" d="M212.7 265.565a1.21 1.21 0 0 1-.5-.091v-.685a1.106 1.106 0 0 0 .456.091c.73 0 .913-1.05 1.05-2.6.137-1.415.228-3.879.228-3.879h4.427v7.119h-.73v-6.48h-3.058c-.046.776-.091 2.282-.183 3.332-.182 2.052-.547 3.193-1.69 3.193z" class="cls-2" data-name="Path 26" transform="translate(-194.447 -240.1)"/>
                <path id="Path_27" d="M230.1 262v-.091a3.3 3.3 0 0 1 3.24-3.605c1.689 0 3.1 1.1 3.1 3.468v.274h-5.61c.046 1.917.913 2.966 2.6 2.966a2.065 2.065 0 0 0 2.236-1.46h.73a2.726 2.726 0 0 1-2.921 2.1A3.385 3.385 0 0 1 230.1 262zm5.613-.593c-.046-1.734-.958-2.51-2.373-2.51a2.462 2.462 0 0 0-2.464 2.51z" class="cls-2" data-name="Path 27" transform="translate(-204.178 -240.045)"/>
                <path id="Path_28" d="M249.13 261.877v3.7h-.73V258.5h.73v3.377l3.47-3.377h.867L250 261.831l3.7 3.742h-.913z" class="cls-2" data-name="Path 28" transform="translate(-214.127 -240.154)"/>
                <path id="Path_29" d="M268.059 259.093h-2.464v6.48h-.73v-6.48H262.4v-.593h5.613v.593z" class="cls-2" data-name="Path 29" transform="translate(-221.738 -240.154)"/>
                <path id="Path_30" d="M278.5 258.337h.73v1.643a3.083 3.083 0 0 1 2.693-1.78 3.249 3.249 0 0 1 3.195 3.56v.091c0 2.236-1.369 3.605-3.195 3.605a2.858 2.858 0 0 1-2.693-1.734v4.062h-.73zm5.842 3.605v-.091c0-1.962-1.141-3.012-2.51-3.012a2.724 2.724 0 0 0-2.647 3.012v.091a2.66 2.66 0 0 0 2.647 2.966c1.506.001 2.51-1.095 2.51-2.966z" class="cls-2" data-name="Path 30" transform="translate(-230.49 -239.991)"/>
                <path id="Path_31" d="M296.3 262v-.091a3.435 3.435 0 0 1 3.423-3.605 3.383 3.383 0 0 1 3.423 3.605V262a3.409 3.409 0 0 1-3.423 3.605A3.462 3.462 0 0 1 296.3 262zm6.115 0v-.091a2.689 2.689 0 1 0-5.34 0V262a2.685 2.685 0 1 0 5.34 0z" class="cls-2" data-name="Path 31" transform="translate(-240.167 -240.045)"/>
                <path id="Path_32" d="M320.492 262.2h-4.062v3.377h-.73V258.5h.73v3.1h4.062v-3.1h.73v7.074h-.73z" class="cls-2" data-name="Path 32" transform="translate(-250.713 -240.154)"/>
                <path id="Path_33" d="M333.2 265.574V258.5h.73v6.024l4.2-6.024h.73v7.074h-.73v-6.024l-4.2 6.024z" class="cls-2" data-name="Path 33" transform="translate(-260.227 -240.154)"/>
                <path id="Path_34" d="M351.53 261.877v3.7h-.73V258.5h.73v3.377L355 258.5h.867l-3.468 3.331 3.7 3.742h-.913z" class="cls-2" data-name="Path 34" transform="translate(-269.795 -240.154)"/>
                <path id="Path_35" d="M363.8 262v-.091a3.3 3.3 0 0 1 3.24-3.605c1.688 0 3.1 1.1 3.1 3.468v.274h-5.61c.046 1.917.913 2.966 2.6 2.966a2.065 2.065 0 0 0 2.236-1.46h.73a2.726 2.726 0 0 1-2.921 2.1A3.385 3.385 0 0 1 363.8 262zm5.613-.593c-.046-1.734-.958-2.51-2.373-2.51a2.462 2.462 0 0 0-2.464 2.51z" class="cls-2" data-name="Path 35" transform="translate(-276.862 -240.045)"/>
            </g>
        </g>
    </g>
</svg>
