<svg id="Group_5132" data-name="Group 5132" xmlns="http://www.w3.org/2000/svg" viewBox="0 0 97.9 40.9">
  <defs>
    <style>
      .cls-1 {
        fill: #4cc7e9;
      }

      .cls-2 {
        fill: #fff;
      }
    </style>
  </defs>
  <path id="Path_2480" data-name="Path 2480" class="cls-1" d="M54.6,35.7l15.9,5.2V0L54.6,5.2h0V35.7Z"/>
  <g id="Group_2813" data-name="Group 2813">
    <g id="Group_2812" data-name="Group 2812">
      <path id="Path_2481" data-name="Path 2481" class="cls-2" d="M6.1,17.5H2.7v7.9H0V15.6H8.8v9.8H6.1Z"/>
      <path id="Path_2482" data-name="Path 2482" class="cls-2" d="M13.8,24.4,9.9,15.6h2.9l2.4,5.9,2.2-5.9H20L14.7,28.7H12.1Z"/>
      <path id="Path_2483" data-name="Path 2483" class="cls-2" d="M20.8,25.5a2.391,2.391,0,0,1-.9-.1V23.2a.584.584,0,0,0,.4.1c.7,0,1-.9,1.2-2.5.1-1.3.2-5.2.2-5.2h7.5v9.8H26.5V17.5H24c0,1.3-.1,2.7-.2,3.8C23.5,24,22.8,25.5,20.8,25.5Z"/>
      <path id="Path_2484" data-name="Path 2484" class="cls-2" d="M31.3,15.6H34v3.1h1.8c2.3,0,3.8,1.2,3.8,3.4v.1c0,2.2-1.4,3.3-3.9,3.3H31.3V15.6Zm3.9,7.9c1.1,0,1.6-.4,1.6-1.4V22c0-1-.5-1.5-1.6-1.5H34v2.9h1.2Z"/>
      <path id="Path_2485" data-name="Path 2485" class="cls-2" d="M47.5,17.5H44.6v7.9H41.9V17.5H39V15.6h8.5Z"/>
    </g>
  </g>
  <g id="Group_2815" data-name="Group 2815">
    <g id="Group_2814" data-name="Group 2814">
      <path id="Path_2486" data-name="Path 2486" class="cls-2" d="M77.5,15.6h2.7v1.5a3.7,3.7,0,0,1,3.1-1.8c2.4,0,4.3,1.8,4.3,5v.1c0,3.2-1.8,5.1-4.3,5.1a3.305,3.305,0,0,1-3.1-1.7v4.8H77.5Zm7.4,4.9v-.1c0-2-1-3-2.3-3-1.4,0-2.4,1-2.4,3v.1c0,2,.9,2.9,2.4,2.9S84.9,22.4,84.9,20.5Z"/>
      <path id="Path_2487" data-name="Path 2487" class="cls-2" d="M91.7,24.4l-3.9-8.8h2.9l2.4,5.9,2.2-5.9h2.6L92.6,28.7H90Z"/>
    </g>
  </g>
</svg>
